<svg class="svg-icon" style="width: 1em; height: 1em;vertical-align: middle;fill:#ffff;overflow: hidden;" viewBox="0 0 1024 1024" version="1.1" xmlns="http://www.w3.org/2000/svg"><path d="M736 800a32 32 0 0 0-32 32v96a32 32 0 0 1-32 32H96a32 32 0 0 1-32-32V96a32 32 0 0 1 32-32h576a32 32 0 0 1 32 32v128a32 32 0 0 0 64 0V96a96.11 96.11 0 0 0-96-96H96A96.11 96.11 0 0 0 0 96v832a96.11 96.11 0 0 0 96 96h576a96.11 96.11 0 0 0 96-96v-96a32 32 0 0 0-32-32z"  /><path d="M1024 510.42v-0.24c0-0.63-0.09-1.25-0.16-1.88 0-0.15 0-0.3-0.05-0.46a31.043 31.043 0 0 0-0.84-4.21l-0.06-0.23a31.84 31.84 0 0 0-1.5-4.22l-0.05-0.12a31.73 31.73 0 0 0-2.1-4l-0.14-0.22a31.93 31.93 0 0 0-2.59-3.51l-0.34-0.4c-0.46-0.52-0.93-1-1.43-1.54l-160-160a32 32 0 1 0-45.26 45.25L914.75 480H544a32 32 0 0 0 0 64h370.75L809.38 649.37a32 32 0 1 0 45.25 45.25l160-160 0.28-0.3 0.45-0.47q0.59-0.63 1.13-1.27l0.24-0.28c0.46-0.55 0.89-1.12 1.3-1.7l0.19-0.27c0.41-0.59 0.81-1.18 1.17-1.79q0.61-1 1.14-2.06a31.78 31.78 0 0 0 1.81-4.36l0.05-0.17a32 32 0 0 0 1.07-4.29l0.08-0.47c0.11-0.68 0.21-1.37 0.27-2.05v-0.17c0.06-0.63 0.09-1.26 0.11-1.9v-0.58c0.08-0.73 0.08-1.4 0.08-2.07z"  /></svg>