<?xml version="1.0" ?>
<!-- Uploaded to: SVG Repo, www.svgrepo.com, Generator: SVG Repo Mixer Tools -->
<svg fill="#000000" width="800px" height="800px" viewBox="0 0 512 512" xmlns="http://www.w3.org/2000/svg">
<g id="Health_notification_gadget">
<path d="M149.6414,154.3365V88.7821a20.8523,20.8523,0,0,0-20.8282-20.8286H86.4607A20.8522,20.8522,0,0,0,65.6326,88.7821v65.5544A27.2645,27.2645,0,0,0,39.4138,181.578v81.9107A27.2644,27.2644,0,0,0,65.6326,290.73v72.6975a20.8522,20.8522,0,0,0,20.8281,20.8287h42.3525a20.8523,20.8523,0,0,0,20.8282-20.8287V290.73a27.2642,27.2642,0,0,0,26.2192-27.2414V181.578A27.2643,27.2643,0,0,0,149.6414,154.3365ZM86.4607,79.9535h42.3525a8.8382,8.8382,0,0,1,8.8282,8.8286V154.31H77.6326V88.7821A8.8381,8.8381,0,0,1,86.4607,79.9535Zm42.3525,292.3028H86.4607a8.8381,8.8381,0,0,1-8.8281-8.8287v-72.671h60.0088v72.671A8.8382,8.8382,0,0,1,128.8132,372.2563Zm31.6543-106.6416a9.7606,9.7606,0,0,1-9.75,9.7491H64.5564a9.7607,9.7607,0,0,1-9.75-9.7491V179.4523a9.7607,9.7607,0,0,1,9.75-9.7491H150.718a9.7606,9.7606,0,0,1,9.75,9.7491Z"/>
<path d="M142.06,219.2431H125.63a8.6068,8.6068,0,0,0-7.9033,5.1884l-4.998,11.5337L103.73,204.4066a8.6139,8.6139,0,0,0-16.2607-.8891l-7.167,17.5874h-9.91a5,5,0,1,0,0,10H81.2336a8.5812,8.5812,0,0,0,7.9766-5.3633L95.2141,211.01l8.9609,31.4258a8.5241,8.5241,0,0,0,7.72,6.2338c.1972.0132.3945.02.59.02a8.5146,8.5146,0,0,0,7.8779-5.1895l6.1778-14.2563H142.06a5,5,0,0,0,0-10Z"/>
<path d="M107.6375,335.6553a8.4625,8.4625,0,1,0,8.4624,8.4625A8.4627,8.4627,0,0,0,107.6375,335.6553Z"/>
<path d="M107.6375,307.5226a8.4625,8.4625,0,1,0,8.4624,8.4625A8.4627,8.4627,0,0,0,107.6375,307.5226Z"/>
<path d="M377.9553,218.5972c-1.22-4.71-2.29-9.45-3.05-14.24a28.2655,28.2655,0,0,0-20.76-22.83h0v-3.4457a7.2029,7.2029,0,1,0-14.4058,0v3.4948l-.0039.0009a28.2432,28.2432,0,0,0-20.36,21.58c-1.05,5.16-2.11,10.33-3.38,15.44-.1.42-.4,1.5-.77,2.84h63.49C378.3455,220.0772,378.0554,218.9772,377.9553,218.5972Z"/>
<path d="M383.0857,229.5472h-1v.03h-71.23v-.03h-.07a7.2,7.2,0,0,0,0,14.4h15.2993a20.86,20.86,0,0,0,41.7051,0h15.2959a7.2,7.2,0,0,0,0-14.4Zm-36.1484,22.705a8.8859,8.8859,0,0,1-8.8526-8.305H355.79A8.8859,8.8859,0,0,1,346.9373,252.2522Z"/>
<path d="M415.1946,332.7309H281.7317a6,6,0,0,0,0,12H415.1946a6,6,0,1,0,0-12Z"/>
<path d="M415.1946,357.1806H281.7317a6,6,0,1,0,0,12H415.1946a6,6,0,0,0,0-12Z"/>
<path d="M408.636,126.17a37.4121,37.4121,0,1,0,37.4121,37.4121A37.4543,37.4543,0,0,0,408.636,126.17Zm0,62.8242a25.4121,25.4121,0,1,1,25.4121-25.4121A25.4121,25.4121,0,0,1,408.636,188.994Z"/>
<path d="M420.7922,157.6908h-6.457v-6.4565a5.5,5.5,0,1,0-11,0v6.4565h-6.456a5.5,5.5,0,0,0,0,11h6.456v6.4566a5.5,5.5,0,1,0,11,0v-6.4566h6.457a5.5,5.5,0,0,0,0-11Z"/>
<path d="M441.3533,41.1183H255.573A31.2327,31.2327,0,0,0,224.3406,72.351v145.8H197.3879a6,6,0,0,0,0,12h26.9527V439.6491a31.2326,31.2326,0,0,0,31.2324,31.2326h185.78a31.2327,31.2327,0,0,0,31.2329-31.2326V72.351A31.2328,31.2328,0,0,0,441.3533,41.1183ZM366.88,56.7351h11.29a6,6,0,0,1,0,12H366.88a6,6,0,0,1,0-12Zm-48.124,0h28.2256a6,6,0,0,1,0,12H318.7561a6,6,0,0,1,0-12ZM456.198,435.2592a17.95,17.95,0,0,1-17.95,17.95H258.679a17.95,17.95,0,0,1-17.95-17.95V230.1513h31.13a75.8218,75.8218,0,0,0,150.73-4.3657,6,6,0,1,0-11.9648-.9112,63.83,63.83,0,1,1-63.6426-68.7471,6,6,0,0,0,0-12A75.9022,75.9022,0,0,0,271.2,218.1513H240.7288V101.4331a17.95,17.95,0,0,1,17.95-17.95H438.2478a17.95,17.95,0,0,1,17.95,17.95Z"/>
</g>
</svg>