<?xml version="1.0" encoding="utf-8"?>

<!-- Uploaded to: SVG Repo, www.svgrepo.com, Generator: SVG Repo Mixer Tools -->
<svg version="1.1" id="Icons" xmlns="http://www.w3.org/2000/svg" xmlns:xlink="http://www.w3.org/1999/xlink" 
	 viewBox="0 0 32 32" xml:space="preserve">
<style type="text/css">
	.st0{fill:none;stroke:#ffff;stroke-width:2;stroke-linecap:round;stroke-linejoin:round;stroke-miterlimit:10;}
</style>
<path class="st0" d="M21,25H11c-2.2,0-4-1.8-4-4V11c0-2.2,1.8-4,4-4h10c2.2,0,4,1.8,4,4v10C25,23.2,23.2,25,21,25z"/>
<path class="st0" d="M23,7H9l0.7-4.3c0.2-1,1-1.7,2-1.7h8.6c1,0,1.8,0.7,2,1.7L23,7z"/>
<path class="st0" d="M20.3,31h-8.6c-1,0-1.8-0.7-2-1.7L9,25h14l-0.7,4.3C22.1,30.3,21.3,31,20.3,31z"/>
<polyline class="st0" points="11,19 14,19 17,12 19,16 21,16 "/>
</svg>